<?xml version="1.0" standalone="no"?><!DOCTYPE svg PUBLIC "-//W3C//DTD SVG 1.1//EN" "http://www.w3.org/Graphics/SVG/1.1/DTD/svg11.dtd"><svg class="icon" width="200px" height="183.18px" viewBox="0 0 1118 1024" version="1.1" xmlns="http://www.w3.org/2000/svg"><path fill="#000000" d="M914.646281 798.542882 914.646281 687.220053C975.351654 652.052105 1016.287761 586.544162 1016.287761 511.380292 1016.287761 399.117278 925.293227 308.097331 813.030212 308.097331 772.373615 308.097331 734.690039 320.345122 702.901666 340.902118 671.596092 205.795174 551.125521 104.865186 406.515106 104.865186 238.120585 104.865186 101.616068 241.344282 101.616068 409.738812 101.616068 499.920213 141.002146 580.725188 203.257549 636.526362L203.257549 761.418334C81.872213 691.10784 0 560.117385 0 409.738812 0 185.238187 181.989069 3.223706 406.515106 3.223706 559.078972 3.223706 691.822746 87.382852 761.345519 211.690385 778.218001 208.7936 795.319185 206.481254 813.030212 206.481254 981.399322 206.481254 1117.903838 342.985762 1117.903838 511.380292 1117.903838 644.047838 1032.982374 756.641186 914.646281 798.542882L914.646281 798.542882ZM355.694362 612.996361C383.747413 612.996361 406.515106 635.738641 406.515106 663.817105 406.515106 691.870148 383.747413 714.637841 355.694362 714.637841 327.641318 714.637841 304.873626 691.870148 304.873626 663.817105 304.873626 635.738641 327.641318 612.996361 355.694362 612.996361L355.694362 612.996361ZM355.694362 816.253918C383.747413 816.253918 406.515106 838.996198 406.515106 867.074654 406.515106 895.127706 383.747413 917.869986 355.694362 917.869986 327.641318 917.869986 304.873626 895.127706 304.873626 867.074654 304.873626 838.996198 327.641318 816.253918 355.694362 816.253918L355.694362 816.253918ZM558.951919 714.637841C587.004962 714.637841 609.772655 737.380122 609.772655 765.433173 609.772655 793.511629 587.004962 816.253918 558.951919 816.253918 530.898867 816.253918 508.131174 793.511629 508.131174 765.433173 508.131174 737.380122 530.898867 714.637841 558.951919 714.637841L558.951919 714.637841ZM558.951919 917.869986C587.004962 917.869986 609.772655 940.637679 609.772655 968.690722 609.772655 996.769186 587.004962 1019.511467 558.951919 1019.511467 530.898867 1019.511467 508.131174 996.769186 508.131174 968.690722 508.131174 940.637679 530.898867 917.869986 558.951919 917.869986L558.951919 917.869986ZM762.209468 612.996361C790.262519 612.996361 813.030212 635.738641 813.030212 663.817105 813.030212 691.870148 790.262519 714.637841 762.209468 714.637841 734.156425 714.637841 711.388732 691.870148 711.388732 663.817105 711.388732 635.738641 734.156425 612.996361 762.209468 612.996361L762.209468 612.996361ZM762.209468 816.253918C790.262519 816.253918 813.030212 838.996198 813.030212 867.074654 813.030212 895.127706 790.262519 917.869986 762.209468 917.869986 734.156425 917.869986 711.388732 895.127706 711.388732 867.074654 711.388732 838.996198 734.156425 816.253918 762.209468 816.253918L762.209468 816.253918Z" /></svg>