<?xml version="1.0" standalone="no"?><!DOCTYPE svg PUBLIC "-//W3C//DTD SVG 1.1//EN" "http://www.w3.org/Graphics/SVG/1.1/DTD/svg11.dtd"><svg class="icon" width="200px" height="177.16px" viewBox="0 0 1156 1024" version="1.1" xmlns="http://www.w3.org/2000/svg"><path fill="#000000" d="M1108.456371 554.238839 1023.200329 554.238839C999.642467 554.238839 980.561654 535.158035 980.561654 511.600165 980.561654 488.063619 999.642467 468.96149 1023.200329 468.96149L1108.456371 468.96149C1132.014233 468.96149 1151.095046 488.063619 1151.095046 511.600165 1151.095046 535.158035 1132.014233 554.238839 1108.456371 554.238839L1108.456371 554.238839ZM940.95032 270.435811C924.299917 287.086215 897.309638 287.086215 880.659234 270.435811 864.008831 253.785408 864.008831 226.79512 880.659234 210.144716L940.95032 149.85363C957.600724 133.203227 984.591012 133.203227 1001.241415 149.85363 1017.891819 166.504034 1017.891819 193.494313 1001.241415 210.144716L940.95032 270.435811 940.95032 270.435811ZM878.122235 603.166725 878.122235 603.166725C915.409758 647.596228 937.92298 704.859965 937.92298 767.389589 937.92298 908.672847 823.395489 1023.200329 682.133556 1023.200329L341.066773 1023.200329C152.689103 1023.200329 0 870.51123 0 682.133556 0 493.777198 152.689103 341.066773 341.066773 341.066773 374.580777 341.066773 406.922216 346.012866 437.515469 355.052263 484.311415 294.761169 557.266188 255.81074 639.494881 255.81074 780.77813 255.81074 895.305621 370.316907 895.305621 511.600165 895.305621 543.920279 889.059051 574.705403 878.122235 603.166725L878.122235 603.166725ZM85.256035 682.133556C85.256035 823.416814 199.783521 937.944296 341.066773 937.944296L682.133556 937.944296C776.322388 937.944296 852.666947 861.578422 852.666947 767.389589 852.666947 673.222072 776.322388 596.856198 682.133556 596.856198 648.022612 596.856198 616.406036 607.132116 589.735543 624.379468 563.470118 511.024541 462.395134 426.344131 341.066773 426.344131 199.783521 426.344131 85.256035 540.850298 85.256035 682.133556L85.256035 682.133556ZM639.494881 341.066773C592.336499 341.066773 549.633867 360.211543 518.763461 391.167223 568.672039 421.760475 610.13815 464.761577 638.791343 515.970633 652.926063 513.540224 667.273972 511.600165 682.133556 511.600165 727.437152 511.600165 769.926588 523.496356 806.830367 544.154792 808.877025 533.623044 810.028263 522.750177 810.028263 511.600165 810.028263 417.411323 733.683714 341.066773 639.494881 341.066773L639.494881 341.066773ZM639.494881 170.533391C615.958327 170.533391 596.856198 151.452578 596.856198 127.894708L596.856198 42.638675C596.856198 19.080804 615.958327 0 639.494881 0 663.031427 0 682.133556 19.080804 682.133556 42.638675L682.133556 127.894708C682.133556 151.452578 663.031427 170.533391 639.494881 170.533391L639.494881 170.533391ZM338.039433 270.435811 277.748338 210.144716C261.097935 193.494313 261.097935 166.504034 277.748338 149.85363 294.398741 133.203227 321.38903 133.203227 338.039433 149.85363L398.330519 210.144716C414.980922 226.79512 414.980922 253.785408 398.330519 270.435811 381.680116 287.086215 354.689836 287.086215 338.039433 270.435811L338.039433 270.435811Z" /></svg>