<?xml version="1.0" standalone="no"?><!DOCTYPE svg PUBLIC "-//W3C//DTD SVG 1.1//EN" "http://www.w3.org/Graphics/SVG/1.1/DTD/svg11.dtd"><svg t="1564331914145" class="icon" viewBox="0 0 1024 1024" version="1.1" xmlns="http://www.w3.org/2000/svg" p-id="2218" xmlns:xlink="http://www.w3.org/1999/xlink" width="200" height="200"><defs><style type="text/css"></style></defs><path d="M974.609258 436.523146c0-123.914547-97.954037-224.933873-220.651865-229.892794-49.386906-92.019056-146.504869-154.60003-258.250307-154.60003-120.532854 0-224.045064 72.811386-268.995596 176.842307C126.515775 250.085154 51.322727 339.025498 51.322727 445.538757c0 122.321978 99.161169 221.483146 221.483146 221.483146 2.815041 0 5.616659-0.059446 8.406772-0.163955l23.081228 0 42.337798-67.595506-74.218906 0c-0.089169 0-0.177378 0.003835-0.266547 0.003835-0.098757 0-0.196554-0.003835-0.29627-0.003835l-1.308764 0 0-0.0163c-83.631461-0.861963-151.163685-68.912899-151.163685-152.748584 0-84.371655 68.397064-152.768719 152.768719-152.768719 0.931955 0 1.859116 0.018217 2.786277 0.035476 5.589813-24.286442 15.081948-47.078112 27.772644-67.691386-0.038352-0.004794-0.076704-0.011506-0.115056-0.017258 13.172015-21.349633 29.785169-40.350202 49.064749-56.229873 0.116015-0.09588 0.233948-0.188884 0.349963-0.284764 1.022082-0.838951 2.052794-1.667356 3.089258-2.48809 0.529258-0.419955 1.058517-0.838951 1.590652-1.254112 0.465978-0.362427 0.936749-0.719101 1.404644-1.077693 38.234127-29.328779 86.06394-46.773213 137.975371-46.773213 101.522697 0 187.464869 66.674097 216.449438 158.620285 11.29564-2.46412 23.022742-3.773843 35.056659-3.773843 11.265918 0 22.265288 1.139056 32.890727 3.304989-0.001918-0.00767-0.003835-0.015341-0.004794-0.022052 3.933963 0.806352 7.813273 1.763236 11.638891 2.845723 0.245453 0.069034 0.489948 0.139985 0.734442 0.209978 0.895521 0.257918 1.787206 0.523506 2.676974 0.795805 0.465978 0.141903 0.930996 0.285723 1.395056 0.432419 0.609798 0.192719 1.21576 0.39215 1.822682 0.591581 0.680749 0.223401 1.360539 0.44776 2.037453 0.67979 0.228195 0.078622 0.454472 0.161079 0.681708 0.2397 63.982742 22.27967 109.902622 83.121378 109.902622 154.696869 0 89.709303-72.131596 161.60024-161.559011 162.788195 0 0-16.810667 0.390232-21.037064-0.094921L614.562996 599.262442l-38.28015 67.595506 76.214172 0c-1.2637 5.224509-1.950202 10.674337-1.950202 16.287161 0 38.126742 30.906966 69.033708 69.033708 69.033708s69.033708-30.906966 69.033708-69.033708c0-7.029933-1.057558-13.811536-3.010637-20.201948C893.073738 643.566742 974.609258 549.575431 974.609258 436.523146z" p-id="2219"></path><path d="M580.554307 596.853933 478.921348 596.853933 528.779026 396.464419 340.853933 670.681648 428.104869 670.681648 428.104869 819.29588Z" p-id="2220"></path><path d="M326.47191 805.872659c0 0-68.235026 47.940075-68.554307 99.235955l0.180255 0c-0.002876 0.267506-0.020135 0.531176-0.020135 0.798682 0 37.772944 30.621243 68.394187 68.394187 68.394187s68.394187-30.621243 68.394187-68.394187c0-0.267506-0.017258-0.532135-0.020135-0.798682l0.020135 0C394.866097 905.108614 402.696629 860.044944 326.47191 805.872659z" p-id="2221"></path><path d="M634.007491 795.086142c0 0-69.273408 39.310861-67.835206 94.681648l0.030682 0c0.642397 37.173693 30.956824 67.116105 68.283925 67.116105s67.642487-29.942412 68.283925-67.116105L702.801498 889.76779C702.801498 889.76779 707.595506 833.358622 634.007491 795.086142z" p-id="2222"></path></svg>