<?xml version="1.0" standalone="no"?><!DOCTYPE svg PUBLIC "-//W3C//DTD SVG 1.1//EN" "http://www.w3.org/Graphics/SVG/1.1/DTD/svg11.dtd"><svg class="icon" width="200px" height="200.00px" viewBox="0 0 1024 1024" version="1.1" xmlns="http://www.w3.org/2000/svg"><path fill="#000000" d="M975.744078 551.515826 890.906911 551.515826C867.464789 551.515826 848.477727 532.528764 848.477727 509.086635 848.477727 485.665722 867.464789 466.657443 890.906911 466.657443L975.744078 466.657443C999.186207 466.657443 1018.173269 485.665722 1018.173269 509.086635 1018.173269 532.528764 999.186207 551.515826 975.744078 551.515826L975.744078 551.515826ZM809.061004 269.107136C792.492404 285.675736 765.634731 285.675736 749.066131 269.107136 732.497532 252.538538 732.497532 225.680861 749.066131 209.112263L809.061004 149.117388C825.629603 132.548789 852.508494 132.548789 869.055884 149.117388 885.624483 165.685987 885.624483 192.543663 869.055884 209.112263L809.061004 269.107136 809.061004 269.107136ZM509.086635 763.619344C368.497517 763.619344 254.532709 649.675753 254.532709 509.086635 254.532709 368.497514 368.497517 254.553924 509.086635 254.553924 649.675753 254.553924 763.619344 368.497514 763.619344 509.086635 763.619344 649.675753 649.675753 763.619344 509.086635 763.619344L509.086635 763.619344ZM509.086635 339.39109C415.360551 339.39109 339.391092 415.360551 339.391092 509.086635 339.391092 602.812719 415.360551 678.782177 509.086635 678.782177 602.812719 678.782177 678.782177 602.812719 678.782177 509.086635 678.782177 415.360551 602.812719 339.39109 509.086635 339.39109L509.086635 339.39109ZM509.086635 169.695545C485.665722 169.695545 466.657443 150.708482 466.657443 127.266355L466.657443 42.42919C466.657443 18.987062 485.665722 0 509.086635 0 532.507547 0 551.515826 18.987062 551.515826 42.42919L551.515826 127.266355C551.515826 150.708482 532.507547 169.695545 509.086635 169.695545L509.086635 169.695545ZM209.112263 269.107136 149.117388 209.112263C132.548789 192.543663 132.548789 165.685987 149.117388 149.117388 165.685987 132.548789 192.543663 132.548789 209.112263 149.117388L269.107138 209.112263C285.675737 225.680861 285.675737 252.538538 269.107138 269.107136 252.538539 285.675736 225.680857 285.675736 209.112263 269.107136L209.112263 269.107136ZM169.695545 509.086635C169.695545 532.528764 150.708482 551.515826 127.266355 551.515826L42.42919 551.515826C18.987062 551.515826 0 532.528764 0 509.086635 0 485.665722 18.987062 466.657443 42.42919 466.657443L127.266355 466.657443C150.708482 466.657443 169.695545 485.665722 169.695545 509.086635L169.695545 509.086635ZM209.112263 749.066131C225.680857 732.497532 252.538539 732.497532 269.107138 749.066131 285.675737 765.634731 285.675737 792.492404 269.107138 809.061004L209.112263 869.055884C192.543663 885.624483 165.685987 885.624483 149.117388 869.055884 132.548789 852.508494 132.548789 825.629603 149.117388 809.061004L209.112263 749.066131 209.112263 749.066131ZM509.086635 848.477727C532.507547 848.477727 551.515826 867.464789 551.515826 890.906911L551.515826 975.744078C551.515826 999.186207 532.507547 1018.173269 509.086635 1018.173269 485.665722 1018.173269 466.657443 999.186207 466.657443 975.744078L466.657443 890.906911C466.657443 867.464789 485.665722 848.477727 509.086635 848.477727L509.086635 848.477727ZM809.061004 749.066131 869.055884 809.061004C885.624483 825.629603 885.624483 852.508494 869.055884 869.055884 852.508494 885.624483 825.629603 885.624483 809.061004 869.055884L749.066131 809.061004C732.497532 792.492404 732.497532 765.634731 749.066131 749.066131 765.634731 732.497532 792.492404 732.497532 809.061004 749.066131L809.061004 749.066131Z" /></svg>