<?xml version="1.0" standalone="no"?><!DOCTYPE svg PUBLIC "-//W3C//DTD SVG 1.1//EN" "http://www.w3.org/Graphics/SVG/1.1/DTD/svg11.dtd"><svg class="icon" width="200px" height="175.49px" viewBox="0 0 1167 1024" version="1.1" xmlns="http://www.w3.org/2000/svg"><path fill="#000000" d="M901.383177 852.313097 901.383177 744.078176C992.83399 720.506185 1060.474185 637.72583 1060.474185 538.93031 1060.474185 421.812812 965.523367 326.835476 848.379352 326.835476 805.955076 326.835476 766.633085 339.61578 733.462608 361.066558 700.795922 220.085401 575.0875 114.76715 424.189676 114.76715 248.473653 114.76715 106.034158 257.18012 106.034158 432.896151 106.034158 550.596982 170.121323 653.104627 265.098659 708.123603L265.098659 825.957011C109.719766 763.010003 0 610.865962 0 432.896151 0 198.63463 189.901637 8.706474 424.189676 8.706474 583.386753 8.706474 721.901995 96.524714 794.447498 226.236921 812.053566 223.214191 829.89828 220.801311 848.379352 220.801311 1024.068857 220.801311 1166.508353 363.240795 1166.508353 538.93031 1166.508353 696.536474 1051.803728 827.017626 901.383177 852.313097L901.383177 852.313097ZM399.583597 698.021327C414.219967 672.646304 446.648026 663.975847 471.996523 678.612217L530.223834 712.233459 530.223834 644.990985C530.223834 615.718235 553.981427 591.960652 583.254176 591.960652 612.526917 591.960652 636.284509 615.718235 636.284509 644.990985L636.284509 712.233459 694.511821 678.612217C719.860326 663.975847 752.288376 672.646304 766.924747 698.021327 781.587643 723.369824 772.89066 755.797874 747.515646 770.434253L689.288334 804.055485 747.515646 837.676718C772.89066 852.313097 781.587643 884.741147 766.924747 910.116161 752.288376 935.464666 719.860326 944.161641 694.511821 929.525261L636.284509 895.904029 636.284509 963.119986C636.284509 992.419243 612.526917 1016.150319 583.254176 1016.150319 553.981427 1016.150319 530.223834 992.419243 530.223834 963.119986L530.223834 895.904029 471.996523 929.525261C446.648026 944.161641 414.219967 935.464666 399.583597 910.116161 384.92071 884.741147 393.617684 852.313097 418.992698 837.676718L477.193501 804.055485 418.992698 770.434253C393.617684 755.797874 384.92071 723.369824 399.583597 698.021327L399.583597 698.021327ZM583.254176 857.085827C612.526917 857.085827 636.284509 833.354743 636.284509 804.055485 636.284509 774.782736 612.526917 751.025143 583.254176 751.025143 553.981427 751.025143 530.223834 774.782736 530.223834 804.055485 530.223834 833.354743 553.981427 857.085827 583.254176 857.085827L583.254176 857.085827Z" /></svg>