<?xml version="1.0" standalone="no"?><!DOCTYPE svg PUBLIC "-//W3C//DTD SVG 1.1//EN" "http://www.w3.org/Graphics/SVG/1.1/DTD/svg11.dtd"><svg class="icon" width="200px" height="169.40px" viewBox="0 0 1209 1024" version="1.1" xmlns="http://www.w3.org/2000/svg"><path fill="#000000" d="M878.875852 886.665367 851.407546 886.665367C851.407546 848.978855 842.645158 811.347284 825.477469 776.819623L878.875852 776.819623C1000.230816 776.819623 1098.59481 678.455629 1098.59481 557.100655 1098.59481 435.745691 1000.230816 337.381697 878.875852 337.381697 834.926561 337.381697 794.19107 350.59395 759.828222 372.843276 726.014735 226.794306 595.76004 117.662735 439.437926 117.662735 257.405479 117.662735 109.845744 265.222465 109.845744 447.227441 109.845744 610.746253 229.058187 746.055123 385.215497 771.9852 367.690712 805.38666 358.598708 841.97444 357.417566 878.754495 153.959839 840.298869 0 661.864771 0 447.227441 0 204.54498 196.727988 7.789519 439.437926 7.789519 604.357624 7.789519 747.852042 98.764541 823.032792 233.139483 841.271742 230.035565 859.730445 227.508482 878.875852 227.508482 1060.880828 227.508482 1208.440563 375.068209 1208.440563 557.100655 1208.440563 739.105641 1060.880828 886.665367 878.875852 886.665367L878.875852 886.665367ZM604.220282 692.464458 701.320732 789.564917C754.966329 843.210514 754.966329 930.14769 701.320732 983.765826 647.702605 1037.411423 560.737959 1037.411423 507.119822 983.765826 453.501695 930.14769 453.501695 843.210514 507.119822 789.564917L604.220282 692.464458 604.220282 692.464458Z" /></svg>