<?xml version="1.0" standalone="no"?><!DOCTYPE svg PUBLIC "-//W3C//DTD SVG 1.1//EN" "http://www.w3.org/Graphics/SVG/1.1/DTD/svg11.dtd"><svg class="icon" width="200px" height="146.49px" viewBox="0 0 1398 1024" version="1.1" xmlns="http://www.w3.org/2000/svg"><path fill="#000000" d="M508.143883 1016.901909C227.48634 1016.901909 0 789.383797 0 508.758027 0 228.132245 227.48634 0.614144 508.143883 0.614144 698.848715 0.614144 864.778432 105.813077 951.681899 261.197493 972.772501 257.576512 994.148981 254.68608 1016.287765 254.68608 1226.749152 254.68608 1397.379797 425.316715 1397.379797 635.778112 1397.379797 846.271264 1226.749152 1016.901909 1016.287765 1016.901909L508.143883 1016.901909 508.143883 1016.901909ZM1016.287765 889.850048C1156.616533 889.850048 1270.359701 776.10688 1270.359701 635.778112 1270.359701 495.481109 1156.616533 381.706176 1016.287765 381.706176 965.467019 381.706176 918.362549 397.015915 878.627083 422.71216 839.495115 253.82848 688.906901 127.665995 508.143883 127.665995 297.650731 127.665995 127.020089 298.264864 127.020089 508.758027 127.020089 719.251179 297.650731 889.850048 508.143883 889.850048L1016.287765 889.850048 1016.287765 889.850048Z" /></svg>