<?xml version="1.0" standalone="no"?><!DOCTYPE svg PUBLIC "-//W3C//DTD SVG 1.1//EN" "http://www.w3.org/Graphics/SVG/1.1/DTD/svg11.dtd"><svg class="icon" width="200px" height="200.00px" viewBox="0 0 1024 1024" version="1.1" xmlns="http://www.w3.org/2000/svg"><path fill="#ffffff" d="M837.80865 728.495896 837.80865 626.526483C893.413515 594.313371 930.91014 534.33273 930.91014 465.460905 930.91014 362.63031 847.561032 279.281202 744.730437 279.281202 707.489836 279.281202 672.972462 290.476655 643.85497 309.30643 615.179713 185.574546 504.831166 93.10149 372.371022 93.10149 218.125129 93.10149 93.08982 218.136791 93.08982 372.359415 93.08982 454.96371 129.166652 528.979401 186.191311 580.09212L186.191311 694.490571C75.004858 630.087615 0.011607 510.103072 0.011607 372.359415 0.011607 166.721494 166.709824 0 372.371022 0 512.116362 0 633.706909 77.088035 697.411606 190.951159 712.86645 188.297764 728.507503 186.179704 744.730437 186.179704 898.953053 186.179704 1023.988361 311.215012 1023.988361 465.460905 1023.988361 587.004905 946.20206 690.114802 837.80865 728.495896L837.80865 728.495896ZM325.820273 465.460905C351.516287 465.460905 372.371022 486.292363 372.371022 511.988377L372.371022 884.371061C372.371022 910.067075 351.516287 930.898533 325.820273 930.898533 300.124267 930.898533 279.269532 910.067075 279.269532 884.371061L279.269532 511.988377C279.269532 486.292363 300.124267 465.460905 325.820273 465.460905L325.820273 465.460905ZM511.999984 558.539118C537.695991 558.539118 558.550726 579.370576 558.550726 605.089867L558.550726 977.449282C558.550726 1003.145289 537.695991 1024.000023 511.999984 1024.000023 486.30397 1024.000023 465.449235 1003.145289 465.449235 977.449282L465.449235 605.089867C465.449235 579.370576 486.30397 558.539118 511.999984 558.539118L511.999984 558.539118ZM698.179688 465.460905C723.875702 465.460905 744.730437 486.292363 744.730437 511.988377L744.730437 884.371061C744.730437 910.067075 723.875702 930.898533 698.179688 930.898533 672.483682 930.898533 651.628947 910.067075 651.628947 884.371061L651.628947 511.988377C651.628947 486.292363 672.483682 465.460905 698.179688 465.460905L698.179688 465.460905Z" /></svg>