<?xml version="1.0" standalone="no"?><!DOCTYPE svg PUBLIC "-//W3C//DTD SVG 1.1//EN" "http://www.w3.org/Graphics/SVG/1.1/DTD/svg11.dtd"><svg class="icon" width="200px" height="200.00px" viewBox="0 0 1024 1024" version="1.1" xmlns="http://www.w3.org/2000/svg"><path fill="#ffffff" d="M837.816037 728.512411 837.816037 626.540687C893.422162 594.326844 930.919638 534.321574 930.919638 465.44818 930.919638 362.638531 847.56864 279.264256 744.735713 279.264256 707.494268 279.264256 672.976111 290.48324 643.85796 309.313442 615.182052 185.555475 504.831004 93.103601 372.367857 93.103601 218.118467 93.103601 93.080323 218.118467 93.080323 372.367857 93.080323 454.974025 129.157973 528.968116 186.183924 580.105271L186.183924 694.506316C74.994951 630.1019 0 510.114636 0 372.367857 0 166.725273 166.701996 0 372.367857 0 512.116365 0 633.709668 77.089782 697.392532 190.955488 712.847726 188.302033 728.512411 186.183924 744.735713 186.183924 898.961825 186.183924 1023.999969 311.222068 1023.999969 465.44818 1023.999969 586.994936 946.211904 690.130448 837.816037 728.512411L837.816037 728.512411ZM325.816052 744.735713C300.119463 744.735713 302.540158 723.903783 302.540158 698.183909L302.540158 511.999984C302.540158 486.303388 300.119463 465.44818 325.816052 465.44818 351.512649 465.44818 349.091954 486.303388 349.091954 511.999984L349.091954 698.183909C349.091954 723.903783 351.512649 744.735713 325.816052 744.735713L325.816052 744.735713ZM325.816052 837.816037C351.512649 837.816037 372.367857 858.671244 372.367857 884.367841 372.367857 910.087707 351.512649 930.919638 325.816052 930.919638 300.119463 930.919638 279.264256 910.087707 279.264256 884.367841 279.264256 858.671244 300.119463 837.816037 325.816052 837.816037L325.816052 837.816037ZM511.999984 837.816037C486.303388 837.816037 488.724082 816.984106 488.724082 791.28751L488.724082 605.103585C488.724082 579.383711 486.303388 558.551781 511.999984 558.551781 537.696573 558.551781 535.275887 579.383711 535.275887 605.103585L535.275887 791.28751C535.275887 816.984106 537.696573 837.816037 511.999984 837.816037L511.999984 837.816037ZM511.999984 930.919638C537.696573 930.919638 558.551781 951.751568 558.551781 977.471442 558.551781 1003.168031 537.696573 1023.999969 511.999984 1023.999969 486.303388 1023.999969 465.44818 1003.168031 465.44818 977.471442 465.44818 951.751568 486.303388 930.919638 511.999984 930.919638L511.999984 930.919638ZM698.183909 744.735713C672.48732 744.735713 674.908007 723.903783 674.908007 698.183909L674.908007 511.999984C674.908007 486.303388 672.48732 465.44818 698.183909 465.44818 723.880505 465.44818 721.459811 486.303388 721.459811 511.999984L721.459811 698.183909C721.459811 723.903783 723.880505 744.735713 698.183909 744.735713L698.183909 744.735713ZM698.183909 837.816037C723.880505 837.816037 744.735713 858.671244 744.735713 884.367841 744.735713 910.087707 723.880505 930.919638 698.183909 930.919638 672.48732 930.919638 651.632112 910.087707 651.632112 884.367841 651.632112 858.671244 672.48732 837.816037 698.183909 837.816037L698.183909 837.816037Z" /></svg>