<?xml version="1.0" standalone="no"?><!DOCTYPE svg PUBLIC "-//W3C//DTD SVG 1.1//EN" "http://www.w3.org/Graphics/SVG/1.1/DTD/svg11.dtd"><svg class="icon" width="200px" height="177.32px" viewBox="0 0 1155 1024" version="1.1" xmlns="http://www.w3.org/2000/svg"><path fill="#ffffff" d="M1034.917827 764.291515 1034.917827 765.369787 955.63277 765.369787C932.291254 765.369787 913.34741 746.447091 913.34741 723.105566 913.34741 699.742902 932.291254 680.820207 955.63277 680.820207L1019.060814 680.820207C1042.402339 680.820207 1061.325034 661.897502 1061.325034 638.534847 1061.325034 615.193322 1042.402339 596.270627 1019.060814 596.270627 995.698159 596.270627 976.775454 577.326783 976.775454 553.985258 976.775454 530.622603 995.698159 511.699899 1019.060814 511.699899 1021.978511 511.699899 1024.832772 511.995895 1027.581319 512.566749 1093.588766 517.027857 1145.895762 571.406831 1145.895762 638.534847 1145.895762 703.210305 1097.457881 756.468719 1034.917827 764.291515L1034.917827 764.291515ZM807.655146 511.699899C784.31363 511.699899 765.369787 492.777203 765.369787 469.414539 765.369787 446.073014 784.31363 427.129179 807.655146 427.129179 810.572843 427.129179 813.427105 427.425176 816.175651 427.99603 882.183099 432.457129 934.490095 486.857251 934.490095 553.985258 934.490095 618.639577 886.073353 671.897991 823.512159 679.720786L823.512159 680.820207 638.830844 680.820207 342.579591 680.820207C319.216935 680.820207 300.294231 699.742902 300.294231 723.105566 300.294231 746.447091 319.216935 765.369787 342.579591 765.369787L823.512159 765.369787 823.512159 766.469207C886.073353 774.292003 934.490095 827.550416 934.490095 892.225874 934.490095 959.353882 882.183099 1013.732864 816.175651 1018.193963 813.427105 1018.764817 810.572843 1019.060814 807.655146 1019.060814 784.31363 1019.060814 765.369787 1000.138119 765.369787 976.775454 765.369787 953.433938 784.31363 934.490095 807.655146 934.490095 830.996671 934.490095 849.940515 915.56739 849.940515 892.225874 849.940515 868.86321 830.996671 849.940515 807.655146 849.940515L326.722586 849.940515 326.722586 848.841095C264.161393 841.018299 215.744651 787.781033 215.744651 723.105566 215.744651 700.778895 221.93946 680.122498 232.087943 661.982078 99.607908 616.165888 4.338983 490.64179 4.338983 342.579591 4.338983 155.78401 155.762862 4.338983 342.579591 4.338983 469.520254 4.338983 579.969614 74.36354 637.837138 177.793536 651.854735 175.383274 666.083753 173.459291 680.820207 173.459291 805.477454 173.459291 908.907451 263.463684 930.261556 381.96841 900.788658 360.931441 865.77638 347.188701 827.740698 343.594444 798.627224 292.513723 743.804251 258.008871 680.820207 258.008871 646.991915 258.008871 615.637322 268.199641 589.187827 285.304068 563.140044 172.888437 462.902593 88.888563 342.579591 88.888563 202.46705 88.888563 88.888563 202.46705 88.888563 342.579591 88.888563 482.692139 202.46705 596.270627 342.579591 596.270627L600.499157 596.270627 807.655146 596.270627C830.996671 596.270627 849.940515 577.326783 849.940515 553.985258 849.940515 530.622603 830.996671 511.699899 807.655146 511.699899L807.655146 511.699899Z" /></svg>