<?xml version="1.0" standalone="no"?><!DOCTYPE svg PUBLIC "-//W3C//DTD SVG 1.1//EN" "http://www.w3.org/Graphics/SVG/1.1/DTD/svg11.dtd"><svg class="icon" width="200px" height="193.94px" viewBox="0 0 1056 1024" version="1.1" xmlns="http://www.w3.org/2000/svg"><path fill="#ffffff" d="M862.721776 752.013152C862.078576 720.186664 852.382936 688.622224 833.611024 661.298136 906.364088 634.474312 958.344176 564.722848 958.344176 482.655288 958.344176 377.432536 873.0368 292.101336 767.790224 292.101336 729.674664 292.101336 694.346312 303.583648 664.544712 322.855824 635.195736 196.193064 522.254576 101.547376 386.682312 101.547376 228.812448 101.547376 100.839464 229.520352 100.839464 387.390224 100.839464 494.185248 159.537424 587.163376 246.321776 636.213336L244.963912 637.5712C221.594312 660.9408 206.943648 689.598936 200.344888 719.662576 84.187736 654.365864 5.5744 530.132976 5.5744 387.390224 5.5744 176.897064 176.189152 6.282312 386.682312 6.282312 529.710936 6.282312 654.158224 85.181512 719.359648 201.719824 735.1776 199.004088 751.186136 196.836264 767.790224 196.836264 925.636264 196.836264 1053.609248 324.809248 1053.609248 482.655288 1053.609248 607.197864 973.852448 712.8256 862.721776 752.013152ZM746.850488 805.994312C718.954664 833.913952 673.716264 833.913952 645.796624 805.994312 617.9008 778.098488 617.9008 732.860088 645.796624 704.940448L696.323552 654.413512 746.850488 704.940448C774.770136 732.860088 774.770136 778.098488 746.850488 805.994312ZM479.064888 996.548264C451.169064 968.652448 451.169064 923.390224 479.064888 895.4944L529.591824 844.967464 580.118752 895.4944C608.0384 923.390224 608.0384 968.652448 580.118752 996.548264 552.222936 1024.467912 506.960712 1024.467912 479.064888 996.548264L479.064888 996.548264ZM312.333152 805.994312C284.437336 778.098488 284.437336 732.860088 312.333152 704.940448L362.860088 654.413512 413.387024 704.940448C441.282848 732.860088 441.282848 778.098488 413.387024 805.994312 385.4912 833.913952 340.228976 833.913952 312.333152 805.994312L312.333152 805.994312Z" /></svg>