<?xml version="1.0" standalone="no"?><!DOCTYPE svg PUBLIC "-//W3C//DTD SVG 1.1//EN" "http://www.w3.org/Graphics/SVG/1.1/DTD/svg11.dtd"><svg class="icon" width="200px" height="200.00px" viewBox="0 0 1024 1024" version="1.1" xmlns="http://www.w3.org/2000/svg"><path fill="#ffffff" d="M744.735713 744.735713 719.993429 744.735713 803.43753 642.042437C877.454899 617.439811 930.919638 547.751762 930.919638 465.44818 930.919638 362.638531 847.56864 279.264256 744.735713 279.264256 707.494268 279.264256 672.976111 290.48324 643.85796 309.313442 615.182052 185.555475 504.831004 93.103601 372.367857 93.103601 218.118467 93.103601 93.080323 218.118467 93.080323 372.367857 93.080323 499.151682 177.618395 606.034621 293.369449 640.133811L261.946983 728.070168C110.21139 681.029572 0 539.581921 0 372.367857 0 166.725273 166.701996 0 372.367857 0 512.116365 0 633.709668 77.089782 697.392532 190.955488 712.847726 188.302033 728.512411 186.183924 744.735713 186.183924 898.961825 186.183924 1023.999969 311.222068 1023.999969 465.44818 1023.999969 619.697578 898.961825 744.735713 744.735713 744.735713L744.735713 744.735713ZM465.44818 418.919653 698.183909 418.919653 558.551781 651.632112 721.459811 651.632112 418.896383 1023.999969 502.689625 744.735713 349.091954 744.735713 465.44818 418.919653 465.44818 418.919653Z" /></svg>